<svg xmlns="http://www.w3.org/2000/svg" width="78.33" height="92.158" viewBox="0 0 78.33 92.158">
  <g id="Group_7627" data-name="Group 7627" transform="translate(0.999 1.819)">
    <g id="Group_7626" data-name="Group 7626">
      <line id="Line_176" data-name="Line 176" x1="30.172" y2="8.381" transform="translate(2.1 10.057)" fill="none" stroke="#30609e" stroke-linecap="round" stroke-width="3"/>
      <line id="Line_177" data-name="Line 177" x1="26.819" y2="6.705" transform="translate(45.682)" fill="none" stroke="#30609e" stroke-linecap="round" stroke-width="3"/>
      <line id="Line_178" data-name="Line 178" x1="45.258" transform="translate(15.51 88.839)" fill="none" stroke="#30609e" stroke-linecap="round" stroke-width="3"/>
      <line id="Line_179" data-name="Line 179" y2="20.115" transform="translate(38.977 5.029)" fill="none" stroke="#30609e" stroke-linecap="round" stroke-width="3"/>
      <g id="Path_23178" data-name="Path 23178" transform="translate(10053.752 -1210.823)" fill="#30609e" stroke-linecap="round">
        <path d="M -9987.4951171875 1294.217529296875 C -9987.79296875 1294.217529296875 -9988.1015625 1294.210815429688 -9988.4111328125 1294.19775390625 C -9991.4482421875 1294.069458007813 -9998.16015625 1294.00439453125 -10008.3583984375 1294.00439453125 C -10025.7333984375 1294.00439453125 -10047.4912109375 1294.1962890625 -10047.708984375 1294.1982421875 L -10047.7890625 1294.198974609375 L -10047.8662109375 1294.174560546875 C -10047.94140625 1294.150634765625 -10049.72265625 1293.566650390625 -10051.3935546875 1291.705810546875 C -10052.369140625 1290.619384765625 -10053.107421875 1289.319091796875 -10053.5869140625 1287.841186523438 C -10054.1796875 1286.016357421875 -10054.376953125 1283.916137695313 -10054.173828125 1281.5986328125 C -10053.7451171875 1270.107666015625 -10054.169921875 1245.678955078125 -10054.1748046875 1245.433471679688 L -10054.17578125 1245.365112304688 L -10054.1591796875 1245.299072265625 C -10054.1376953125 1245.218872070313 -10053.6318359375 1243.312866210938 -10052.064453125 1241.391967773438 C -10051.1416015625 1240.259887695313 -10050.0390625 1239.357177734375 -10048.7890625 1238.708984375 C -10047.23046875 1237.901123046875 -10045.4423828125 1237.491455078125 -10043.474609375 1237.491455078125 C -10043.2353515625 1237.491455078125 -10042.990234375 1237.49755859375 -10042.74609375 1237.509643554688 L -10042.716796875 1237.511108398438 L -10042.6884765625 1237.515869140625 C -10042.55859375 1237.537475585938 -10042.12109375 1237.57373046875 -10040.6484375 1237.57373046875 C -10039.2060546875 1237.57373046875 -10037.4248046875 1237.538940429688 -10036.5810546875 1237.520385742188 L -10036.5810546875 1234.810302734375 L -10036.5810546875 1234.310302734375 L -10036.0810546875 1234.310302734375 L -9994.6611328125 1234.310302734375 L -9994.1611328125 1234.310302734375 L -9994.1611328125 1234.810302734375 L -9994.1611328125 1235.966064453125 L -9994.1611328125 1238.381591796875 L -9982.1435546875 1238.381591796875 C -9982.138671875 1238.381469726563 -9982.1337890625 1238.381469726563 -9982.126953125 1238.381469726563 C -9981.88671875 1238.381469726563 -9980.625 1238.45166015625 -9979.39453125 1239.836791992188 C -9977.8564453125 1241.569213867188 -9977.0458984375 1244.571899414063 -9976.9853515625 1248.761596679688 C -9976.8408203125 1258.6845703125 -9976.984375 1286.730224609375 -9976.9853515625 1287.012329101563 L -9976.9853515625 1287.031372070313 L -9976.9873046875 1287.050415039063 C -9976.9931640625 1287.125 -9977.15234375 1288.897827148438 -9978.548828125 1290.672729492188 C -9979.3642578125 1291.709716796875 -9980.435546875 1292.53466796875 -9981.7314453125 1293.124389648438 C -9983.3251953125 1293.849731445313 -9985.2646484375 1294.217407226563 -9987.4951171875 1294.217529296875 Z" stroke="none"/>
        <path d="M -10036.0810546875 1234.810302734375 L -10036.0810546875 1238.009033203125 C -10036.0810546875 1238.009033203125 -10038.666015625 1238.07373046875 -10040.6484375 1238.07373046875 C -10041.638671875 1238.07373046875 -10042.4794921875 1238.057495117188 -10042.7705078125 1238.009033203125 C -10043.0107421875 1237.997192382813 -10043.2451171875 1237.991455078125 -10043.474609375 1237.991455078125 C -10051.748046875 1237.991577148438 -10053.6748046875 1245.424560546875 -10053.6748046875 1245.424560546875 C -10053.6748046875 1245.424560546875 -10053.2392578125 1269.99755859375 -10053.6748046875 1281.6298828125 C -10054.5478515625 1291.51708984375 -10047.7138671875 1293.6982421875 -10047.7138671875 1293.6982421875 C -10047.7138671875 1293.6982421875 -10025.9365234375 1293.50439453125 -10008.3583984375 1293.50439453125 C -9999.5703125 1293.50439453125 -9991.8310546875 1293.552856445313 -9988.3896484375 1293.6982421875 C -9988.0830078125 1293.711181640625 -9987.78515625 1293.717529296875 -9987.4951171875 1293.717529296875 C -9978.0322265625 1293.717529296875 -9977.4853515625 1287.009765625 -9977.4853515625 1287.009765625 C -9977.4853515625 1287.009765625 -9977.3388671875 1258.8017578125 -9977.4853515625 1248.768798828125 C -9977.6259765625 1239.018798828125 -9981.88671875 1238.881469726563 -9982.126953125 1238.881469726563 C -9982.1337890625 1238.881469726563 -9982.1376953125 1238.881591796875 -9982.1376953125 1238.881591796875 L -9994.6611328125 1238.881591796875 L -9994.6611328125 1235.966064453125 L -9994.6611328125 1234.810302734375 L -10036.0810546875 1234.810302734375 M -10037.0810546875 1233.810302734375 L -10036.0810546875 1233.810302734375 L -9994.6611328125 1233.810302734375 L -9993.6611328125 1233.810302734375 L -9993.6611328125 1234.810302734375 L -9993.6611328125 1235.966064453125 L -9993.6611328125 1237.881591796875 L -9982.146484375 1237.881591796875 C -9982.1416015625 1237.881469726563 -9982.134765625 1237.881469726563 -9982.126953125 1237.881469726563 C -9981.849609375 1237.881469726563 -9980.3935546875 1237.959716796875 -9979.021484375 1239.5048828125 C -9977.400390625 1241.329467773438 -9976.5478515625 1244.44140625 -9976.4853515625 1248.75439453125 C -9976.3408203125 1258.682250976563 -9976.484375 1286.732788085938 -9976.4853515625 1287.015014648438 L -9976.4853515625 1287.052978515625 L -9976.48828125 1287.090942382813 C -9976.4951171875 1287.171752929688 -9976.6669921875 1289.089965820313 -9978.1552734375 1290.982055664063 C -9979.021484375 1292.082397460938 -9980.1552734375 1292.956420898438 -9981.5244140625 1293.57958984375 C -9983.18359375 1294.334716796875 -9985.1923828125 1294.717529296875 -9987.4951171875 1294.717529296875 C -9987.80078125 1294.717529296875 -9988.115234375 1294.710693359375 -9988.431640625 1294.697387695313 C -9991.462890625 1294.5693359375 -9998.1669921875 1294.50439453125 -10008.3583984375 1294.50439453125 C -10025.7314453125 1294.50439453125 -10047.4873046875 1294.6962890625 -10047.705078125 1294.6982421875 L -10047.865234375 1294.699584960938 L -10048.017578125 1294.65087890625 C -10048.0986328125 1294.625244140625 -10050.0048828125 1294.00048828125 -10051.765625 1292.039916992188 C -10052.7880859375 1290.901123046875 -10053.5615234375 1289.540405273438 -10054.0625 1287.99560546875 C -10054.6748046875 1286.109985351563 -10054.880859375 1283.947265625 -10054.6728515625 1281.567504882813 C -10054.2451171875 1270.0849609375 -10054.669921875 1245.6875 -10054.6748046875 1245.442260742188 L -10054.6767578125 1245.305786132813 L -10054.642578125 1245.173583984375 C -10054.62109375 1245.089111328125 -10054.087890625 1243.080688476563 -10052.4521484375 1241.075927734375 C -10050.9326171875 1239.212646484375 -10048.140625 1236.991577148438 -10043.474609375 1236.991455078125 C -10043.2275390625 1236.991455078125 -10042.9736328125 1236.997802734375 -10042.7216796875 1237.01025390625 L -10042.6630859375 1237.013061523438 L -10042.6064453125 1237.022705078125 C -10042.5546875 1237.031127929688 -10042.2197265625 1237.07373046875 -10040.6484375 1237.07373046875 C -10039.44921875 1237.07373046875 -10038.0126953125 1237.049560546875 -10037.0810546875 1237.03076171875 L -10037.0810546875 1234.810302734375 L -10037.0810546875 1233.810302734375 Z" stroke="none" fill="#30609e"/>
      </g>
      <path id="Path_23179" data-name="Path 23179" d="M-10024.812,1240.128c1.07-.146,20.99,0,20.99,0s3.633.146,3.344,6.979c-.158,3.7-.145,6.671-.086,9.148.137,2.324-3.939,2.286-3.939,2.286l-.191-.238v9.451h-6.979v5.089h9.16a3.694,3.694,0,0,1-3.928,3.49h-16.68a5.706,5.706,0,0,1-3.818-1.679c-.932-.758-2.23-2.561-2.039-8.063.438-12.5,0-22.683,0-22.683l.02-.021.365-.332,1.639-1.485Z" transform="translate(10070.492 -1207.271)" fill="#f3f3f3" stroke="#f3f3f3" stroke-linecap="round" stroke-width="1"/>
      <path id="Path_23180" data-name="Path 23180" d="M-10004.647,1240.128c-1.068-.146-20.988,0-20.988,0s-3.635.146-3.344,6.979c.156,3.7.143,6.671.084,9.148-.135,2.324,3.941,2.286,3.941,2.286l.191-.238v9.451h6.979v5.089h-9.162a3.7,3.7,0,0,0,3.928,3.49h16.68a5.709,5.709,0,0,0,3.82-1.679c.932-.758,2.229-2.561,2.037-8.063-.437-12.5,0-22.683,0-22.683l-.018-.021-.367-.332-1.639-1.485Z" transform="translate(10034.409 -1207.271)" fill="#f3f3f3" stroke="#f3f3f3" stroke-linecap="round" stroke-width="1"/>
    </g>
  </g>
</svg>
