<?xml version="1.0" encoding="utf-8"?>
<!-- Generator: Adobe Illustrator 16.0.2, SVG Export Plug-In . SVG Version: 6.00 Build 0)  -->
<!DOCTYPE svg PUBLIC "-//W3C//DTD SVG 1.1//EN" "http://www.w3.org/Graphics/SVG/1.1/DTD/svg11.dtd">
<svg version="1.1" id="Layer_1" xmlns="http://www.w3.org/2000/svg" xmlns:xlink="http://www.w3.org/1999/xlink" x="0px" y="0px"
	 width="1440px" height="321px" viewBox="0 0 1440 321" enable-background="new 0 0 1440 321" xml:space="preserve">
<path fill="#1D4179" d="M0,0h1440v281.219H831.158c-8.358,0-16.635,1.637-24.363,4.819l-79.551,32.749
	c-4.657,1.917-9.866,2.007-14.587,0.251l-90.861-33.804c-7.14-2.655-14.697-4.016-22.314-4.016H0V0z"/>
<path fill="#FFFFFF" d="M649.167-133.395c0,2.945,2.387,5.333,5.333,5.333s5.333-2.388,5.333-5.333s-2.387-5.333-5.333-5.333
	S649.167-136.34,649.167-133.395z M726.166-133.395c0,2.945,2.387,5.333,5.334,5.333c2.945,0,5.332-2.388,5.332-5.333
	s-2.387-5.333-5.332-5.333C728.553-138.728,726.166-136.34,726.166-133.395z M654.5-132.395h77v-2h-77V-132.395z"/>
<rect x="1432.055" y="260.586" fill="#1D4179" width="7.945" height="20.633"/>
</svg>
